<svg xmlns="http://www.w3.org/2000/svg" xmlns:xlink="http://www.w3.org/1999/xlink" width="240.003" height="230.694" viewBox="0 0 240.003 230.694">
  <defs>
    <clipPath id="clip-path">
      <rect width="240.003" height="230.694" fill="none"/>
    </clipPath>
  </defs>
  <g id="iconfinder_home_981080" transform="translate(-136.757 -137.408)">
    <g id="Group_4" data-name="Group 4">
      <g id="Component_1_1" data-name="Component 1 – 1" transform="translate(136.757 137.408)" clip-path="url(#clip-path)">
        <g id="Group_3" data-name="Group 3" transform="translate(-136.757 -137.408)">
          <g id="Group_1" data-name="Group 1">
            <path id="Union_4" data-name="Union 4" d="M140.156-1.769H93.044A13.337,13.337,0,0,1,84.5-4.712a9.217,9.217,0,0,1-3.538-7.1l.007-92.485-16.522-.985A7.928,7.928,0,0,1,58.9-118.818l111.3-111.3a7.929,7.929,0,0,1,11.212,0L294.224-117.3a7.928,7.928,0,0,1-5.66,13.534l-16.87.8-.926,91.156a9.211,9.211,0,0,1-3.537,7.1,13.331,13.331,0,0,1-8.54,2.941H211.446V-72.362A14.5,14.5,0,0,0,206.5-83.171a17.7,17.7,0,0,0-11.936-4.478h-37.53A17.694,17.694,0,0,0,145.1-83.171a14.5,14.5,0,0,0-4.945,10.809V-1.77h0Z" transform="translate(80.197 369.848)" fill="#fff"/>
          </g>
        </g>
      </g>
    </g>
  </g>
</svg>
